<svg width="120" height="120" viewBox="0 0 120 120" fill="none" xmlns="http://www.w3.org/2000/svg">
<circle cx="60.5" cy="60.5" r="59.5" fill="white"/>
<path d="M71.0447 48.4675L62.1587 24.8709C61.8954 24.1693 61.619 23.3599 61.3294 22.4424C61.0397 21.498 60.7633 20.4997 60.5 19.4473C59.9471 21.6329 59.381 23.4543 58.8018 24.9114L49.9158 48.4675H71.0447ZM87 70H81.076C80.3915 70 79.8385 69.8246 79.4173 69.4738C78.996 69.123 78.6801 68.6778 78.4695 68.1382L73.1773 54.134H47.7832L42.4911 68.1382C42.3331 68.6239 42.0303 69.0556 41.5827 69.4334C41.1351 69.8111 40.5822 70 39.924 70H34L56.6297 12H64.3703L87 70Z" fill="#F8513B"/>
<path d="M65 87.5459C65 90.7481 64.6018 93.6167 63.8055 96.1518C63.0357 98.6869 61.8811 100.835 60.3415 102.596C58.8285 104.331 56.9571 105.665 54.7274 106.599C52.4977 107.533 49.9362 108 47.0429 108C44.415 108 41.734 107.626 39 106.879C39.0531 106.105 39.1194 105.345 39.1991 104.598C39.2787 103.824 39.3451 103.063 39.3982 102.316C39.4513 101.862 39.6105 101.502 39.876 101.235C40.1679 100.942 40.6059 100.795 41.1899 100.795C41.6677 100.795 42.2915 100.915 43.0613 101.155C43.8576 101.395 44.9193 101.516 46.2466 101.516C47.9985 101.516 49.5646 101.249 50.9449 100.715C52.3252 100.181 53.4798 99.354 54.4089 98.2333C55.3379 97.1125 56.0413 95.6848 56.5191 93.9503C57.0235 92.1891 57.2757 90.1077 57.2757 87.706V50H65V87.5459Z" fill="#F8513B"/>
</svg>
